<svg width="24" height="24" viewBox="0 0 24 24" fill="none" xmlns="http://www.w3.org/2000/svg">
<g clip-path="url(#clip0_1254_1392)">
<path fill-rule="evenodd" clip-rule="evenodd" d="M7.28571 0C6.57564 0 6 0.575633 6 1.28571C6 1.99579 6.57564 2.57143 7.28571 2.57143H20.1429C20.8529 2.57143 21.4286 3.14707 21.4286 3.85714V16.7143C21.4286 17.4243 22.0042 18 22.7143 18C23.4243 18 24 17.4243 24 16.7143V3.85714C24 1.7269 22.273 0 20.1429 0H7.28571ZM16.2857 5.14286C17.7058 5.14286 18.8571 6.29412 18.8571 7.71429V21.4286C18.8571 22.8487 17.7058 24 16.2857 24H2.57143C1.15127 24 0 22.8487 0 21.4286V7.71429C0 6.29412 1.15127 5.14286 2.57143 5.14286H16.2857ZM3.85714 14.5714C3.85714 13.8614 4.43278 13.2857 5.14286 13.2857H8.14286V10.2857C8.14286 9.57564 8.7185 9 9.42857 9C10.1386 9 10.7143 9.57564 10.7143 10.2857V13.2857H13.7143C14.4244 13.2857 15 13.8614 15 14.5714C15 15.2815 14.4244 15.8571 13.7143 15.8571H10.7143V18.8571C10.7143 19.5672 10.1386 20.1429 9.42857 20.1429C8.7185 20.1429 8.14286 19.5672 8.14286 18.8571V15.8571H5.14286C4.43278 15.8571 3.85714 15.2815 3.85714 14.5714Z" fill="#0EA7AA"/>
</g>
<defs>
<clipPath id="clip0_1254_1392">
<rect width="24" height="24" fill="white"/>
</clipPath>
</defs>
</svg>
