<svg width="16" height="16" viewBox="0 0 16 16" fill="none" xmlns="http://www.w3.org/2000/svg">
<g clip-path="url(#clip0_1254_1403)">
<path fill-rule="evenodd" clip-rule="evenodd" d="M4.85714 0C4.38376 0 4 0.383755 4 0.857143C4 1.33053 4.38376 1.71429 4.85714 1.71429H13.4286C13.9019 1.71429 14.2857 2.09805 14.2857 2.57143V11.1429C14.2857 11.6162 14.6695 12 15.1429 12C15.6162 12 16 11.6162 16 11.1429V2.57143C16 1.15127 14.8487 0 13.4286 0H4.85714ZM10.8571 3.42857C11.8039 3.42857 12.5714 4.19608 12.5714 5.14286V14.2857C12.5714 15.2325 11.8039 16 10.8571 16H1.71429C0.767512 16 0 15.2325 0 14.2857V5.14286C0 4.19608 0.767512 3.42857 1.71429 3.42857H10.8571ZM2.57143 9.71429C2.57143 9.2409 2.95519 8.85714 3.42857 8.85714H5.42857V6.85714C5.42857 6.38376 5.81233 6 6.28571 6C6.7591 6 7.14286 6.38376 7.14286 6.85714V8.85714H9.14286C9.61624 8.85714 10 9.2409 10 9.71429C10 10.1877 9.61624 10.5714 9.14286 10.5714H7.14286V12.5714C7.14286 13.0448 6.7591 13.4286 6.28571 13.4286C5.81233 13.4286 5.42857 13.0448 5.42857 12.5714V10.5714H3.42857C2.95519 10.5714 2.57143 10.1877 2.57143 9.71429Z" fill="white"/>
</g>
<defs>
<clipPath id="clip0_1254_1403">
<rect width="16" height="16" fill="white"/>
</clipPath>
</defs>
</svg>
