<svg width="16" height="16" viewBox="0 0 16 16" fill="none" xmlns="http://www.w3.org/2000/svg">
<path fill-rule="evenodd" clip-rule="evenodd" d="M2.28571 2.85672C2.28571 3.48791 1.77403 3.99958 1.14286 3.99958C0.511674 3.99958 0 3.48791 0 2.85672C0 2.22555 0.511674 1.71387 1.14286 1.71387C1.77403 1.71387 2.28571 2.22555 2.28571 2.85672ZM1.14286 9.143C1.77403 9.143 2.28571 8.63132 2.28571 8.00014C2.28571 7.36896 1.77403 6.85728 1.14286 6.85728C0.511674 6.85728 0 7.36896 0 8.00014C0 8.63132 0.511674 9.143 1.14286 9.143ZM1.14286 14.2864C1.77403 14.2864 2.28571 13.7748 2.28571 13.1436C2.28571 12.5124 1.77403 12.0007 1.14286 12.0007C0.511674 12.0007 0 12.5124 0 13.1436C0 13.7748 0.511674 14.2864 1.14286 14.2864ZM5.42857 2.00014C4.95519 2.00014 4.57143 2.3839 4.57143 2.85728C4.57143 3.33067 4.95519 3.71443 5.42857 3.71443H15.1429C15.6162 3.71443 16 3.33067 16 2.85728C16 2.3839 15.6162 2.00014 15.1429 2.00014H5.42857ZM4.57143 8.00014C4.57143 7.52676 4.95519 7.143 5.42857 7.143H15.1429C15.6162 7.143 16 7.52676 16 8.00014C16 8.47352 15.6162 8.85728 15.1429 8.85728H5.42857C4.95519 8.85728 4.57143 8.47352 4.57143 8.00014ZM5.42857 12.2859C4.95519 12.2859 4.57143 12.6696 4.57143 13.143C4.57143 13.6164 4.95519 14.0001 5.42857 14.0001H15.1429C15.6162 14.0001 16 13.6164 16 13.143C16 12.6696 15.6162 12.2859 15.1429 12.2859H5.42857Z" fill="white"/>
</svg>
