<svg width="24" height="24" viewBox="0 0 24 24" fill="none" xmlns="http://www.w3.org/2000/svg">
<path fill-rule="evenodd" clip-rule="evenodd" d="M3.42857 4.28484C3.42857 5.23163 2.66105 5.99913 1.71429 5.99913C0.767511 5.99913 0 5.23163 0 4.28484C0 3.33808 0.767511 2.57056 1.71429 2.57056C2.66105 2.57056 3.42857 3.33808 3.42857 4.28484ZM1.71429 13.7143C2.66105 13.7143 3.42857 12.9467 3.42857 12C3.42857 11.0532 2.66105 10.2857 1.71429 10.2857C0.767511 10.2857 0 11.0532 0 12C0 12.9467 0.767511 13.7143 1.71429 13.7143ZM1.71429 21.4294C2.66105 21.4294 3.42857 20.6619 3.42857 19.7151C3.42857 18.7683 2.66105 18.0008 1.71429 18.0008C0.767511 18.0008 0 18.7683 0 19.7151C0 20.6619 0.767511 21.4294 1.71429 21.4294ZM8.14286 2.99997C7.43278 2.99997 6.85714 3.57561 6.85714 4.28568C6.85714 4.99576 7.43278 5.5714 8.14286 5.5714H22.7143C23.4243 5.5714 24 4.99576 24 4.28568C24 3.57561 23.4243 2.99997 22.7143 2.99997H8.14286ZM6.85714 12C6.85714 11.2899 7.43278 10.7143 8.14286 10.7143H22.7143C23.4243 10.7143 24 11.2899 24 12C24 12.71 23.4243 13.2857 22.7143 13.2857H8.14286C7.43278 13.2857 6.85714 12.71 6.85714 12ZM8.14286 18.4285C7.43278 18.4285 6.85714 19.0042 6.85714 19.7143C6.85714 20.4243 7.43278 21 8.14286 21H22.7143C23.4243 21 24 20.4243 24 19.7143C24 19.0042 23.4243 18.4285 22.7143 18.4285H8.14286Z" fill="#0EA7AA"/>
</svg>
