<svg width="14" height="14" viewBox="0 0 14 14" fill="none" xmlns="http://www.w3.org/2000/svg">
<path d="M12.4876 11.5224L9.91484 8.94961C10.5343 8.12502 10.8686 7.12132 10.8675 6.09C10.8675 3.4557 8.7243 1.3125 6.09 1.3125C3.4557 1.3125 1.3125 3.4557 1.3125 6.09C1.3125 8.7243 3.4557 10.8675 6.09 10.8675C7.12132 10.8686 8.12502 10.5343 8.94961 9.91484L11.5224 12.4876C11.6526 12.604 11.8225 12.6662 11.9971 12.6613C12.1717 12.6564 12.3378 12.5849 12.4613 12.4613C12.5849 12.3378 12.6564 12.1717 12.6613 11.9971C12.6662 11.8225 12.604 11.6526 12.4876 11.5224ZM2.6775 6.09C2.6775 5.41507 2.87764 4.7553 3.25261 4.19412C3.62758 3.63293 4.16054 3.19555 4.78409 2.93726C5.40765 2.67898 6.09379 2.6114 6.75575 2.74307C7.41771 2.87474 8.02575 3.19975 8.503 3.677C8.98025 4.15424 9.30526 4.76229 9.43693 5.42425C9.5686 6.08621 9.50102 6.77235 9.24274 7.39591C8.98446 8.01946 8.54707 8.55242 7.98588 8.92739C7.4247 9.30236 6.76493 9.5025 6.09 9.5025C5.18528 9.50141 4.31793 9.14154 3.6782 8.5018C3.03846 7.86207 2.67859 6.99472 2.6775 6.09Z" fill="black"/>
</svg>
