<svg width="24" height="24" viewBox="0 0 24 24" fill="none" xmlns="http://www.w3.org/2000/svg">
<path fill-rule="evenodd" clip-rule="evenodd" d="M10.9286 2.83376C9.23314 1.88404 6.06171 0.720041 2.56457 0.306898C1.15543 0.140612 0 1.3029 0 2.72233V16.4366C0 17.8578 1.16057 18.9892 2.55771 19.2429C5.712 19.8155 8.33657 21.3275 10.0114 22.524C10.2926 22.7246 10.6029 22.8755 10.9286 22.98V2.83376ZM13.0714 22.98C13.3971 22.8772 13.7057 22.7246 13.9869 22.5258C15.6617 21.3292 18.2863 19.8155 21.4423 19.2429C22.8394 18.9892 24 17.8578 24 16.4366V2.72233C24 1.3029 22.8446 0.140612 21.4354 0.308612C17.9383 0.72347 14.7669 1.88576 13.0714 2.83547V22.9818V22.98Z" fill="#0EA7AA"/>
</svg>
