<svg width="16" height="16" viewBox="0 0 16 16" fill="none" xmlns="http://www.w3.org/2000/svg">
<g clip-path="url(#clip0_1254_1406)">
<path fill-rule="evenodd" clip-rule="evenodd" d="M7.28571 1.88901C6.15543 1.25586 4.04114 0.479865 1.70971 0.204436C0.770286 0.0935788 0 0.868436 0 1.81472V10.9576C0 11.905 0.773714 12.6593 1.70514 12.8284C3.808 13.2101 5.55771 14.2182 6.67429 15.0159C6.86171 15.1496 7.06857 15.2501 7.28571 15.3199V1.88901ZM8.71429 15.3199C8.93143 15.2513 9.13714 15.1496 9.32457 15.017C10.4411 14.2193 12.1909 13.2101 14.2949 12.8284C15.2263 12.6593 16 11.905 16 10.9576V1.81472C16 0.868436 15.2297 0.0935788 14.2903 0.205579C11.9589 0.48215 9.84457 1.25701 8.71429 1.89015V15.321V15.3199Z" fill="white"/>
</g>
<defs>
<clipPath id="clip0_1254_1406">
<rect width="16" height="16" fill="white"/>
</clipPath>
</defs>
</svg>
