<svg width="20" height="20" viewBox="0 0 16 17" fill="none" xmlns="http://www.w3.org/2000/svg">
<path d="M15.1774 2.68934C15.3726 2.8846 15.3726 3.20118 15.1774 3.39645L14.1345 4.43933L12.1345 2.43933L13.1774 1.39645C13.3726 1.20118 13.6892 1.20118 13.8845 1.39645L15.1774 2.68934Z" fill="white"/>
<path d="M13.4274 5.14644L11.4274 3.14644L4.61439 9.95943C4.5595 10.0143 4.51815 10.0812 4.4936 10.1549L3.68904 12.5686C3.6239 12.764 3.80983 12.9499 4.00527 12.8848L6.41895 12.0802C6.49259 12.0557 6.5595 12.0143 6.61439 11.9594L13.4274 5.14644Z" fill="white"/>
<path fill-rule="evenodd" clip-rule="evenodd" d="M0.675781 14.25C0.675781 15.0784 1.34735 15.75 2.17578 15.75H13.1758C14.0042 15.75 14.6758 15.0784 14.6758 14.25V8.25C14.6758 7.97386 14.4519 7.75 14.1758 7.75C13.8996 7.75 13.6758 7.97386 13.6758 8.25V14.25C13.6758 14.5261 13.4519 14.75 13.1758 14.75H2.17578C1.89964 14.75 1.67578 14.5261 1.67578 14.25V3.25C1.67578 2.97386 1.89964 2.75 2.17578 2.75H8.67578C8.95192 2.75 9.17578 2.52614 9.17578 2.25C9.17578 1.97386 8.95192 1.75 8.67578 1.75H2.17578C1.34735 1.75 0.675781 2.42157 0.675781 3.25V14.25Z" fill="white"/>
</svg>
