<svg width="16" height="16" viewBox="0 0 16 16" fill="none" xmlns="http://www.w3.org/2000/svg">
<path fill-rule="evenodd" clip-rule="evenodd" d="M1.77169 0.652956C2.08643 0.337756 2.51351 0.160499 2.95889 0.160156H9.21637C9.66174 0.160499 10.0888 0.337756 10.4036 0.652956L14.2272 4.47661C14.5424 4.79136 14.7197 5.21844 14.72 5.66381V14.1602C14.72 15.088 13.9679 15.8402 13.04 15.8402H2.96003C2.03214 15.8402 1.28003 15.088 1.28003 14.1602V1.84016C1.28003 1.39444 1.45694 0.966556 1.77283 0.652956H1.77169ZM7.00437 5.23044C7.38266 5.49993 7.47043 6.02518 7.20037 6.40301L5.63569 8.59376C5.33386 9.01547 4.72574 9.06564 4.35889 8.69901L3.42037 7.7605C2.97957 7.28736 3.21614 6.51456 3.8462 6.3693C4.1182 6.30667 4.40346 6.38301 4.60757 6.5733L4.84494 6.80964L5.83283 5.42747C6.1022 5.04998 6.62666 4.96221 7.00437 5.23147V5.23044ZM8.06837 7.29901C8.06837 6.83513 8.44449 6.45901 8.90837 6.45901H11.7084C12.355 6.45901 12.7591 7.15901 12.4358 7.71901C12.2857 7.9789 12.0085 8.13901 11.7084 8.13901H8.90837C8.44437 8.13901 8.06837 7.76301 8.06837 7.29901ZM8.06837 11.7443C8.06837 11.2804 8.44437 10.9043 8.90837 10.9043H11.7084C12.355 10.9044 12.7591 11.6044 12.4358 12.1644C12.2857 12.4243 12.0085 12.5843 11.7084 12.5843H8.90837C8.44437 12.5844 8.06837 12.2083 8.06837 11.7443ZM7.20037 10.9178C7.58849 10.4006 7.27123 9.65718 6.62929 9.57959C6.3174 9.54199 6.01066 9.68141 5.83397 9.94107L4.84494 11.3243L4.60757 11.0869C4.13443 10.6461 3.36163 10.8827 3.21637 11.5127C3.15374 11.7847 3.23009 12.07 3.42037 12.2741L4.35889 13.2126C4.72574 13.5792 5.33386 13.5291 5.63569 13.1074L7.20037 10.9178Z" fill="white"/>
</svg>
