<svg width="24" height="24" viewBox="0 0 24 24" fill="none" xmlns="http://www.w3.org/2000/svg">
<path fill-rule="evenodd" clip-rule="evenodd" d="M2.65741 0.97919C3.12952 0.50639 3.77015 0.240505 4.43821 0.23999H13.8244C14.4925 0.240505 15.1331 0.50639 15.6052 0.97919L21.3407 6.71468C21.8135 7.18679 22.0794 7.82742 22.0799 8.49548V21.24C22.0799 22.6318 20.9517 23.76 19.5599 23.76H4.43992C3.04809 23.76 1.91992 22.6318 1.91992 21.24V2.75999C1.91992 2.09142 2.18529 1.44959 2.65912 0.97919H2.65741ZM10.5064 7.84542C11.0739 8.24965 11.2055 9.03753 10.8004 9.60428L8.45341 12.8904C8.00066 13.523 7.08849 13.5982 6.53821 13.0483L5.13044 11.6405C4.46924 10.9308 4.82409 9.77159 5.76918 9.55371C6.17718 9.45976 6.60506 9.57428 6.91124 9.8597L7.26729 10.2142L8.74912 8.14096C9.15318 7.57473 9.93987 7.44308 10.5064 7.84696V7.84542ZM12.1024 10.9483C12.1024 10.2524 12.6666 9.68828 13.3624 9.68828H17.5624C18.5324 9.68828 19.1386 10.7383 18.6536 11.5783C18.4285 11.9681 18.0126 12.2083 17.5624 12.2083H13.3624C12.6664 12.2083 12.1024 11.6443 12.1024 10.9483ZM12.1024 17.6162C12.1024 16.9203 12.6664 16.3562 13.3624 16.3562H17.5624C18.5324 16.3563 19.1386 17.4063 18.6536 18.2463C18.4285 18.6362 18.0126 18.8762 17.5624 18.8762H13.3624C12.6664 18.8763 12.1024 18.3122 12.1024 17.6162ZM10.8004 16.3764C11.3826 15.6007 10.9067 14.4855 9.94381 14.3691C9.47598 14.3127 9.01586 14.5219 8.75084 14.9114L7.26729 16.9862L6.91124 16.6301C6.20152 15.9689 5.04232 16.3238 4.82444 17.2688C4.73049 17.6768 4.84501 18.1047 5.13044 18.4109L6.53821 19.8187C7.08849 20.3686 8.00066 20.2934 8.45341 19.6608L10.8004 16.3764Z" fill="#0EA7AA"/>
</svg>
