<svg width="20" height="20" viewBox="0 0 18 15" fill="none" xmlns="http://www.w3.org/2000/svg">
<path d="M3.5 1C2.94772 1 2.5 1.44772 2.5 2V3C2.5 3.55228 2.94772 4 3.5 4H4V13C4 14.1046 4.89543 15 6 15H12C13.1046 15 14 14.1046 14 13V4H14.5C15.0523 4 15.5 3.55228 15.5 3V2C15.5 1.44772 15.0523 1 14.5 1H11C11 0.447715 10.5523 0 10 0H8C7.44772 0 7 0.447715 7 1H3.5ZM6.5 5C6.77614 5 7 5.22386 7 5.5V12.5C7 12.7761 6.77614 13 6.5 13C6.22386 13 6 12.7761 6 12.5L6 5.5C6 5.22386 6.22386 5 6.5 5ZM9 5C9.27614 5 9.5 5.22386 9.5 5.5V12.5C9.5 12.7761 9.27614 13 9 13C8.72386 13 8.5 12.7761 8.5 12.5V5.5C8.5 5.22386 8.72386 5 9 5ZM12 5.5V12.5C12 12.7761 11.7761 13 11.5 13C11.2239 13 11 12.7761 11 12.5V5.5C11 5.22386 11.2239 5 11.5 5C11.7761 5 12 5.22386 12 5.5Z" fill="white"/>
</svg>
